<?xml version="1.0" encoding="UTF-8"?> <svg xmlns:dc="http://purl.org/dc/elements/1.1/" xmlns:cc="http://creativecommons.org/ns#" xmlns:rdf="http://www.w3.org/1999/02/22-rdf-syntax-ns#" xmlns:svg="http://www.w3.org/2000/svg" xmlns="http://www.w3.org/2000/svg" version="1.1" viewBox="0 0 1106.57 1106.57" data-name="Calque 1" id="Calque_1"><metadata id="metadata858"></metadata><defs id="defs817"><style id="style815">.cls-1{fill:#f6a21e;}.cls-2{fill:#fff;}</style></defs><title id="title819">Logo COSA_clair</title><circle id="circle821" r="553.28" cy="553.28" cx="553.28" class="cls-1"></circle><path style="stroke:#856b4f;stroke-opacity:1;stroke-width:1;stroke-miterlimit:4;stroke-dasharray:none" id="path823" transform="translate(-13.65 -14.22)" d="M226,490.77q.38,13.2,1.06,25.79a160.43,160.43,0,0,1-.69,25.5q-1.29,8.4-4.43,13.51a40.77,40.77,0,0,1-9.63,10.24,20.88,20.88,0,0,1-8.67,4.54,29.3,29.3,0,0,1-9.78.79,27.76,27.76,0,0,1-9.43-2.51,18.5,18.5,0,0,1-7.34-6,85.73,85.73,0,0,1-7.83-11.81,29,29,0,0,1-3.15-13.33q.56-17.4,2-34.66t2-34.95q.45-10.19.61-20.4t.61-20.7a71.92,71.92,0,0,1,4.45-23.71q4.86-13.52,15.75-20.16a26.19,26.19,0,0,1,9.52-3,27.37,27.37,0,0,1,9.91.55,23.56,23.56,0,0,1,8.82,4.31,21.64,21.64,0,0,1,6.29,7.93,46.14,46.14,0,0,1,5,17.07,96.35,96.35,0,0,1-.28,18.3,8.3,8.3,0,0,1-.93,3.6,13,13,0,0,1-2.83,3.61,15.19,15.19,0,0,1-4.27,2.87,16.48,16.48,0,0,1-4.54,1.37,3.94,3.94,0,0,1-3.62-1.18q-3.16-3.58-3.34-10.34t-.1-12.14q-.71-11.1-3.15-13.19c-1.63-1.39-3.39-1-5.26,1.07s-3.58,5.37-5.11,9.77a41.35,41.35,0,0,0-2.39,12.91q-.44,9.6-1.6,19.2a117.08,117.08,0,0,0-.74,19.5l.66,32.4q.33,16.19.67,32.39a18.13,18.13,0,0,0,.1,2.85c.09.5.18,1,.27,1.34s.18.86.27,1.35a18.19,18.19,0,0,1,.1,2.85c.17,1.4.35,2.75.52,4.05a16.22,16.22,0,0,0,1.11,4q2.22,6.3,6.11.28a19.36,19.36,0,0,0,2.17-8.41c.24-3,.53-5.5.85-7.5s.59-3.9.81-5.71.4-3.69.53-5.7.31-4.5.55-7.5q.65-4.2,1.61-9.9a21.37,21.37,0,0,1,3.35-9,5.77,5.77,0,0,1,5.58-2.88A74,74,0,0,1,226,490.77Z" class="cls-2"></path><path style="stroke:#856b4f;stroke-opacity:1;stroke-width:1;stroke-miterlimit:4;stroke-dasharray:none" id="path825" transform="translate(-13.65 -14.22)" d="M260.61,474.33q-.44-10.5-.58-19.5t.12-17.24q.27-8.25,1-16.36t2-16.8a93.49,93.49,0,0,1,3-14A54,54,0,0,1,272,377.4a47.54,47.54,0,0,1,9.07-11.29,35.09,35.09,0,0,1,12.2-7.1q17.28-5.47,28.14,8.88a31.59,31.59,0,0,1,5.25,9.12,106.82,106.82,0,0,1,3.19,10.34q2.17,10.48,3.32,21a139,139,0,0,1,.7,21q-.93,21.6-1,42.75T332,514.51a56.24,56.24,0,0,1-1.47,10.21,103.57,103.57,0,0,1-3.22,9.91,21.64,21.64,0,0,1-8.47,10.68,35.32,35.32,0,0,1-13.35,5.46,39.12,39.12,0,0,1-14.86-.09,28.77,28.77,0,0,1-13-5.94,28.35,28.35,0,0,1-8.85-12.11,82.13,82.13,0,0,1-4.69-17.08,197.73,197.73,0,0,1-2.31-20.08Q261,484.84,260.61,474.33Zm46.88,40.59q.42-9,.72-18.45t.43-18.75q.14-8.1.57-17.7t.88-19.5q.45-9.9.74-19.35t.42-17.55q-.53-4.49-1-9.59a34,34,0,0,0-2.19-9.29c-.55-2-2.18-3.29-4.89-3.88a18.43,18.43,0,0,0-7.29-.27,9.78,9.78,0,0,0-5.74,4.23,18.52,18.52,0,0,0-2.87,6q-2.22,11.42-3.87,24.46t-2.6,26.41q-.93,13.35-.84,26.4a195.46,195.46,0,0,0,1.66,24.73,100.66,100.66,0,0,0,4,20.38q3.06,9.88,6.91,15t8,3Q304.64,529,307.49,514.92Z" class="cls-2"></path><path style="stroke:#856b4f;stroke-opacity:1;stroke-width:1;stroke-miterlimit:4;stroke-dasharray:none" id="path827" transform="translate(-13.65 -14.22)" d="M470.39,341.86A80.39,80.39,0,0,1,473,364q-1,29.1-2.06,57.6t-2,57.3q-.39,6-.47,11.55c-.06,3.7-.11,7.45-.17,11.25a26.58,26.58,0,0,1-.36,4.5q-.77,11.4-8.07,12.63a11.45,11.45,0,0,1-7.55-1.47,12,12,0,0,1-5.44-6.27,26,26,0,0,1-2.44-12c.27-5.6.61-11.15,1-16.65s.9-11.05,1.57-16.65q1-10.5,2.37-20.86a62.82,62.82,0,0,0-.85-20.84,56.21,56.21,0,0,0-2.06-7.79c-.84-2.4-1.63-4.89-2.37-7.49h-1.75l-1.81,4.5a426.11,426.11,0,0,0-8.38,42q-3.09,21-4.59,42.61c-.27,4.2-.85,7.11-1.76,8.71s-2.75,2.61-5.51,3a14.46,14.46,0,0,1-9.43-1.31,11,11,0,0,1-5.8-7,53.55,53.55,0,0,1-1-7.94c-.15-2.7-.21-5.45-.16-8.25a23.24,23.24,0,0,1,.23-5.85,38.67,38.67,0,0,0,.53-5.85l0-1.8q-.48-7.2-2.34-18.14t-4-21.43q-2.44-12-5.45-24.87a15.76,15.76,0,0,1-.17,2,15.73,15.73,0,0,0-.19,2.25q-.41,7.2-1.06,21.6T390,463.38q-.69,15.9-1.34,30.3t-1.07,21.6q-.75,10.5-10.33,8.74a16.37,16.37,0,0,1-7.53-3.56,13.24,13.24,0,0,1-4.26-7.18,66.64,66.64,0,0,1-2.06-17.39q.36-23.4.87-46.65t.86-46.64q.51-14.4.59-28.35t.58-28.34q0-3,.38-5.86a34.32,34.32,0,0,1,1.26-5.85q1.53-4.5,4.77-5.57T380,330a19.57,19.57,0,0,1,5.78,5.07Q407,357.73,411.86,386.8q2.17,10.5,4.08,20.38,1.6,8.4,3.24,16.93t2.72,13.64q.94-4.8,2.09-11.56l2.27-13.5q1.13-6.76,2.26-13.06t2.08-10.81q3.12-13.51,6-26.72t5.66-26.72q2.17-9.3,11.49-8.15a23.23,23.23,0,0,1,11,4.76A17,17,0,0,1,470.39,341.86Z" class="cls-2"></path><path style="stroke-width:1;stroke-miterlimit:4;stroke-dasharray:none;stroke:#856b4f;stroke-opacity:1" id="path829" transform="translate(-13.65 -14.22)" d="M606.49,309.09a79.71,79.71,0,0,1,2.57,22.19q-1,29.1-2,57.6t-2,57.29q-.39,6-.47,11.55T604.31,469a25.56,25.56,0,0,1-.36,4.5q-.76,11.41-8.07,12.64a11.51,11.51,0,0,1-7.55-1.47,12,12,0,0,1-5.44-6.28,26,26,0,0,1-2.44-12q.42-8.4,1-16.66T583,433.07q1-10.5,2.36-20.86a63.09,63.09,0,0,0-.84-20.84,55.55,55.55,0,0,0-2.07-7.79q-1.26-3.58-2.36-7.49h-1.75l-1.82,4.51a427.8,427.8,0,0,0-8.37,42q-3.1,21-4.59,42.61-.41,6.3-1.77,8.7c-.9,1.61-2.74,2.62-5.5,3a14.55,14.55,0,0,1-9.44-1.31,11,11,0,0,1-5.79-7,53.38,53.38,0,0,1-1-7.94c-.16-2.7-.21-5.45-.17-8.25a23.75,23.75,0,0,1,.24-5.85,38.67,38.67,0,0,0,.53-5.85l0-1.8a180.13,180.13,0,0,0-2.34-18.14q-1.87-10.94-4-21.42-2.43-12-5.44-24.88a14,14,0,0,1-.18,1.95,16,16,0,0,0-.18,2.25q-.4,7.21-1.06,21.61t-1.35,30.3q-.67,15.9-1.34,30.3t-1.06,21.6q-.75,10.5-10.34,8.74a16.5,16.5,0,0,1-7.52-3.57,13.2,13.2,0,0,1-4.26-7.18,66.17,66.17,0,0,1-2.06-17.39q.36-23.39.86-46.64t.87-46.65q.51-14.4.58-28.34t.59-28.35a55.63,55.63,0,0,1,.38-5.85,32.6,32.6,0,0,1,1.26-5.86c1-3,2.6-4.85,4.76-5.56s4.59-.27,7.3,1.31a19.58,19.58,0,0,1,5.77,5.08Q543.15,325,548,354q2.17,10.48,4.08,20.38,1.62,8.38,3.24,16.93T558,405q1-4.8,2.09-11.55l2.28-13.51q1.13-6.75,2.26-13.06t2.08-10.81q3.12-13.5,5.95-26.72t5.66-26.71q2.17-9.31,11.49-8.15a23.11,23.11,0,0,1,11,4.75A17.1,17.1,0,0,1,606.49,309.09Z" class="cls-2"></path><path style="stroke:#856b4f;stroke-opacity:1;stroke-width:1;stroke-miterlimit:4;stroke-dasharray:none" id="path831" transform="translate(-13.65 -14.22)" d="M667.59,443.61q7,.57,11.5,1.15a27.38,27.38,0,0,1,7.54,1.92,16,16,0,0,1,5.19,3.57,53.23,53.23,0,0,1,4.72,5.83q2,2.4-3.27,4.21a59.13,59.13,0,0,1-13.59,2.61,123.76,123.76,0,0,1-17.2.38q-8.9-.42-13.52-2.2a8.94,8.94,0,0,1-5.18-4.32,22.81,22.81,0,0,1-2.37-6.74,34.8,34.8,0,0,1-.63-6.9,33.78,33.78,0,0,0-.21-5.09q-.11-30.9-.51-61.34t-.8-61.34q-.18-7.19-.06-14.54T639.13,286a31.12,31.12,0,0,1,.68-6.15,20.57,20.57,0,0,1,2.13-5.56,11.68,11.68,0,0,1,3.4-3.31c1.08-.61,2.58-.41,4.51.58a24.87,24.87,0,0,0,9.44,2.21,64.73,64.73,0,0,0,9.76.1c2.52,0,5-.06,7.44-.18a61.78,61.78,0,0,1,7.43.12,24.44,24.44,0,0,1,8.13,1.91,12.94,12.94,0,0,1,6,5.53c1.51,2.59,1.87,4.89,1.06,6.89s-2.77,3-5.88,3a11.54,11.54,0,0,1-4.51-.28,31.15,31.15,0,0,0-4.5-.88,15.53,15.53,0,0,0-3-.89,17.43,17.43,0,0,0-3.05-.29q-5.83-.57-8.19,1.84c-1.59,1.61-2.5,4.41-2.76,8.41,0,2.2,0,4.4,0,6.6s.17,4.4.33,6.59q.4,11.4.53,22.5t.53,22.19q.23,4.2,1.23,5.54c.66.9,2.25,1.75,4.77,2.53a10.56,10.56,0,0,0,3.48.59,16,16,0,0,1,3.21.28,49.64,49.64,0,0,1,7.85,1.17,9.8,9.8,0,0,1,3,1.64,4.85,4.85,0,0,1,1.55,3.44c.73,3.2-.28,5.3-3,6.31a11.47,11.47,0,0,1-4.25,1.37,19.32,19.32,0,0,0-4.53,1.07,13.92,13.92,0,0,1-2.78.31,13.82,13.82,0,0,0-2.77.31,9.2,9.2,0,0,0-5.74,3.78,13.93,13.93,0,0,0-2.29,6.75q-.5,12.92-.54,25.65T667.59,443.61Z" class="cls-2"></path><path style="stroke:#856b4f;stroke-opacity:1;stroke-width:1;stroke-miterlimit:4;stroke-dasharray:none" id="path833" transform="translate(-13.65 -14.22)" d="M773.45,329.35a121.28,121.28,0,0,0,5.41-29.41,223.42,223.42,0,0,0-.41-30c-.17-2.19-.23-4.35-.2-6.45a33.09,33.09,0,0,1,.68-6.15,11.21,11.21,0,0,1,1.22-3.45,23,23,0,0,1,2.09-3.16q4.15-4.81,9.25-4.24t7.33,6.57a31.14,31.14,0,0,1,1.86,11.69q-.12,7.2-.67,14.55t-1.24,14.55q-2.84,32.72-5.37,64.66T788,422.87c-.22,1.8-.4,3.56-.52,5.25s-.3,3.46-.52,5.26q-.65,4.5-3.3,6.31c-1.77,1.21-4,1.31-6.71.33a21,21,0,0,1-8.92-7.16,27.47,27.47,0,0,1-5.36-11.53,96.53,96.53,0,0,1-1.84-13q-.74-8.69-1.19-17.54t-1.18-17.54q-.25-2.7-1.58-11.09t-3.22-17.83q-1.91-9.45-4-17.53T746,316.87a5.56,5.56,0,0,0-1.44-1,13.93,13.93,0,0,1-2.31-1.64c-.22,2-.34,3.65-.37,4.95s0,2.65-.06,4.05q-.42,8.1-.78,22.35t-.75,29.7l-.75,29.7q-.37,14.25-.49,22.34c-.26,4.2-1,7.26-2.18,9.16s-3.26,3.16-6.18,3.78q-5,1.21-6.69-.87a33.14,33.14,0,0,1-4-7.19,29.8,29.8,0,0,1-2.76-10,60.77,60.77,0,0,1-.13-10.35q1.41-16.5,2.54-32.71t2.26-32.7q1.47-20.7,2.82-41.25t2.82-41.26a30.7,30.7,0,0,1,1.27-6.45q.91-2.85,5-4.37a11,11,0,0,1,6.7.27,10.74,10.74,0,0,1,5.75,5.07,41.68,41.68,0,0,1,4.8,9.88q5.32,14.37,10.35,28.3t10.06,28.3c.37.8.7,1.55,1,2.25S773.07,328.56,773.45,329.35Z" class="cls-2"></path><path style="stroke:#856b4f;stroke-opacity:1;stroke-width:1;stroke-miterlimit:4;stroke-dasharray:none" id="path835" transform="translate(-13.65 -14.22)" d="M843,238.73c-3.88-.18-7.38-.46-10.48-.85a10.33,10.33,0,0,1-6.09-1.78,11,11,0,0,1-4.6-4.48,9.77,9.77,0,0,1-1.36-6q1-6.6,8.57-7.53,16.92-1.28,34.42-1.95a65.56,65.56,0,0,1,9.91.11c3.3.28,6.59.62,9.89,1a20.41,20.41,0,0,1,6,2.08c1.83,1,3.7,2,5.63,3a8.35,8.35,0,0,1,3.59,3.59c.85,1.6,1,3.69.34,6.29q-7.29.34-14.44,1.12a75.6,75.6,0,0,0-14.77,3.21q-.4,44.7-1.22,88.34t-1.21,87.74a16.41,16.41,0,0,1-13.73,1.7q-7-2.22-10.92-9.7A27.52,27.52,0,0,1,838.55,394a73.43,73.43,0,0,1-.69-11.54q.07-5.1.15-10.05t.45-10.05q1-29.7,2.37-59.1t2.37-59.1a6.33,6.33,0,0,0,0-2.7A11.81,11.81,0,0,1,843,238.73Z" class="cls-2"></path><path style="stroke:#856b4f;stroke-opacity:1;stroke-width:1;stroke-miterlimit:4;stroke-dasharray:none" id="path837" transform="translate(-13.65 -14.22)" d="M140.52,830.66q-.42-10.5-.56-19.5t.13-17.24q.28-8.25,1-16.35t2-16.81a93.77,93.77,0,0,1,3-14A54,54,0,0,1,152,733.74a47.53,47.53,0,0,1,9.07-11.28,35.23,35.23,0,0,1,12.21-7.1q17.29-5.45,28.13,8.9a31.77,31.77,0,0,1,5.25,9.13q1.8,5,3.18,10.34,2.16,10.5,3.3,21a137.8,137.8,0,0,1,.68,21q-.93,21.6-1,42.74t-1,42.45a57.07,57.07,0,0,1-1.48,10.2,102.67,102.67,0,0,1-3.22,9.91,21.71,21.71,0,0,1-8.48,10.68,35.47,35.47,0,0,1-13.35,5.45,39.37,39.37,0,0,1-14.87-.1,28.9,28.9,0,0,1-13-6A28.32,28.32,0,0,1,148.61,889a81.7,81.7,0,0,1-4.68-17.08,198.35,198.35,0,0,1-2.3-20.09Q140.93,841.17,140.52,830.66Zm46.85,40.63q.42-9,.73-18.45t.45-18.75q.13-8.1.58-17.7t.9-19.5q.45-9.9.75-19.35t.43-17.55c-.34-3-.67-6.19-1-9.59a33.63,33.63,0,0,0-2.18-9.29q-.83-3-4.89-3.88a18.22,18.22,0,0,0-7.28-.28,9.83,9.83,0,0,0-5.75,4.22,18.52,18.52,0,0,0-2.87,6q-2.22,11.42-3.89,24.46T160.72,798q-.94,13.37-.87,26.4a195.6,195.6,0,0,0,1.64,24.74,101.34,101.34,0,0,0,4,20.38q3,9.88,6.9,15t8,3Q184.51,885.4,187.37,871.29Z" class="cls-2"></path><path style="stroke:#856b4f;stroke-opacity:1;stroke-width:1;stroke-miterlimit:4;stroke-dasharray:none" id="path839" transform="translate(-13.65 -14.22)" d="M297.45,771.5a120.84,120.84,0,0,0,5.43-29.42,223.21,223.21,0,0,0-.38-30q-.24-3.3-.19-6.45a32.09,32.09,0,0,1,.68-6.15,11.21,11.21,0,0,1,1.22-3.45,22.22,22.22,0,0,1,2.1-3.16c2.77-3.2,5.85-4.62,9.25-4.23s5.83,2.58,7.32,6.57a31.18,31.18,0,0,1,1.85,11.69c-.08,4.8-.3,9.66-.67,14.55s-.79,9.75-1.26,14.55q-2.87,32.72-5.42,64.66T312,865c-.22,1.8-.4,3.55-.52,5.25s-.3,3.45-.52,5.25q-.66,4.5-3.31,6.31c-1.77,1.21-4,1.31-6.71.33A21,21,0,0,1,292,875a27.45,27.45,0,0,1-5.35-11.53,98.36,98.36,0,0,1-1.83-13q-.74-8.7-1.17-17.55t-1.17-17.54q-.25-2.7-1.57-11.09t-3.21-17.83q-1.89-9.45-3.94-17.54T270,759a5.36,5.36,0,0,0-1.44-1,14.37,14.37,0,0,1-2.3-1.64c-.23,2-.35,3.65-.37,5s-.05,2.65-.07,4q-.42,8.1-.8,22.35t-.77,29.7q-.4,15.45-.78,29.69t-.5,22.35q-.4,6.3-2.19,9.16t-6.19,3.77c-3.32.81-5.54.51-6.68-.88a33.26,33.26,0,0,1-4-7.18,30.07,30.07,0,0,1-2.75-10,61.81,61.81,0,0,1-.12-10.35q1.42-16.5,2.57-32.7t2.28-32.7q1.5-20.72,2.85-41.26T251.59,706a30.7,30.7,0,0,1,1.27-6.45q.91-2.85,5-4.37a11,11,0,0,1,6.7.28,10.75,10.75,0,0,1,5.74,5.08,41.5,41.5,0,0,1,4.8,9.88q5.3,14.37,10.32,28.31t10,28.31c.38.79.71,1.54,1,2.24S297.07,770.7,297.45,771.5Z" class="cls-2"></path><path style="stroke:#856b4f;stroke-opacity:1;stroke-width:1;stroke-miterlimit:4;stroke-dasharray:none" id="path841" transform="translate(-13.65 -14.22)" d="M441,729.72q6.27,8.68,12.18,12.55t10.81,7.46a30.47,30.47,0,0,1,8.3,9.42q3.4,5.85,4.66,18.43a84.62,84.62,0,0,1-1.13,24.75,148.32,148.32,0,0,1-6.95,24.17,35.73,35.73,0,0,1-4.22,8.12,53.94,53.94,0,0,1-5.94,7.22,13.73,13.73,0,0,1-6.18,3.77,31.12,31.12,0,0,1-8.63,1.53,52.34,52.34,0,0,1-8.88-.42,15.81,15.81,0,0,1-7-2.38,34.2,34.2,0,0,1-11.17-11.81,60.63,60.63,0,0,1-6.44-16.32,126.48,126.48,0,0,1-3-18.89q-.86-9.89-1.57-19.49a22.61,22.61,0,0,1,.39-6.3l1.26-6a19.52,19.52,0,0,1,3.6-6.31q5.93-6,13.45-2.45c2.32,1,3.8,2.19,4.46,3.59s.67,3.59,0,6.59a72.15,72.15,0,0,0,4,43.48c3,6.59,5.37,10.23,7.1,10.93s3.12-.36,4.14-3.17a58.14,58.14,0,0,0,2.51-11.4q1-7.21,2.27-13.81.66-4.5,1.17-9t1.16-9q.52-14.38-11.88-22.45a17.17,17.17,0,0,1-2.44-1.79,8.63,8.63,0,0,0-2.46-1.49q-21.06-12.82-25.64-36.51a66.83,66.83,0,0,1,.45-27.74q3.14-13.35,13.81-24.8a52,52,0,0,1,11.23-9q14.7-8.45,27.36,2a37.19,37.19,0,0,1,8.59,9.87,60.2,60.2,0,0,1,6.73,16,75.52,75.52,0,0,1,2.61,18.74,80.94,80.94,0,0,1-2.06,19.2,67,67,0,0,1-6.7,17.72,30.13,30.13,0,0,0-6.66-2.67,10.85,10.85,0,0,1-4.2-1.79,6,6,0,0,1-2.12-3.74q-.56-2.53.14-8.55,0-1.5.26-7.05c.15-3.7.27-7.84.34-12.45a129.81,129.81,0,0,0-.5-13.79A52.94,52.94,0,0,0,456,673.13c-1-3.1-2.55-5-4.58-5.69s-4.72.67-8.08,4.08A29.61,29.61,0,0,0,436.3,684a58.14,58.14,0,0,0-2.44,15.91,66.27,66.27,0,0,0,1.77,16.34A44.1,44.1,0,0,0,441,729.72Z" class="cls-2"></path><path style="stroke:#856b4f;stroke-opacity:1;stroke-width:1;stroke-miterlimit:4;stroke-dasharray:none" id="path843" transform="translate(-13.65 -14.22)" d="M561.33,549.83c-7.11,25.22-20.17,57.36-28.55,71.18l-16.36,2.16c6.7-17.72,14.79-48.94,18.34-70.55Z" class="cls-2"></path><path style="stroke:#856b4f;stroke-opacity:1;stroke-width:1;stroke-miterlimit:4;stroke-dasharray:none" id="path845" transform="translate(-13.65 -14.22)" d="M653.2,796.69q-5.61,4.21-9.24,3.18t-6.73-7.32a26.57,26.57,0,0,1-2.76-9.29q-.51-4.8-.71-9.9c-.15-2.8-.26-5.44-.31-8s-.16-5.14-.31-7.94a24.56,24.56,0,0,0-.82-3.6c-.37-1.2-.74-2.4-1.1-3.59-2.06-5-5-7.94-8.9-8.82s-7.58.58-11.14,4.39a34.29,34.29,0,0,0-8.75,18q-1,5.42-1.63,11t-1.64,10.95a43.54,43.54,0,0,1-1.87,7.36,27.2,27.2,0,0,1-3.6,6.76,10.32,10.32,0,0,1-5.47,4.52q-3.08.9-7.67-3.28c-2.87-2.58-4.47-6.28-4.77-11.08q0-3.3.1-6.3c0-2,.16-4,.39-6q4-29.7,5.76-59t5.77-59q.88-18.58,7.8-31.82T621,609.94q10.78-.35,17,4.14a27.33,27.33,0,0,1,9.14,11.06,45.24,45.24,0,0,1,3.71,14.09,113.17,113.17,0,0,1,.66,12.89q-.78,12.32-.93,21.45t0,17.85q.15,8.7.73,18T652.51,731a291,291,0,0,1,.07,31.8,248.78,248.78,0,0,0,.36,31.79A5.13,5.13,0,0,0,653.2,796.69ZM610.77,681.36h.29q-.13,8.1-.41,16.35t-.12,16.34q-.12,6.91,5.42,6.88a10.3,10.3,0,0,0,8.8-3.18,17,17,0,0,0,4.82-9.76,52,52,0,0,0,.71-7.65q.06-3.75.12-7.65a171.16,171.16,0,0,0,0-17.4q-.43-8.68,0-17.4a24.42,24.42,0,0,0-1.23-13.64q-2.52-6.13-6.28-8.37t-7.44.62q-3.69,2.87-4.16,13.67Z" class="cls-2"></path><path style="stroke:#856b4f;stroke-opacity:1;stroke-width:1;stroke-miterlimit:4;stroke-dasharray:none" id="path847" transform="translate(-13.65 -14.22)" d="M700.57,694q.27,19.2.1,38.4t-.18,38.39q-.16,9.9-8.86,7.23-9.3-2.67-10.89-12a116.31,116.31,0,0,1-2.27-21.59q-1.11-21.88-1.18-43.64t1.14-43.64q.77-10.8,1.52-21.6t2.1-21.61a33,33,0,0,1,3.68-11.71q3.32-6,8.55-5.73t8.06,6.28a21.43,21.43,0,0,1,2.63,8.38,51.55,51.55,0,0,1,0,8.7q-.84,15-1.65,29.7t-1.65,29.7l-.24,14.7Z" class="cls-2"></path><path style="stroke:#856b4f;stroke-opacity:1;stroke-width:1;stroke-miterlimit:4;stroke-dasharray:none" id="path849" transform="translate(-13.65 -14.22)" d="M839.43,581A80.05,80.05,0,0,1,842,603.22q-1.05,29.1-2.1,57.59t-2.09,57.3q-.39,6-.48,11.55t-.19,11.25a25.56,25.56,0,0,1-.36,4.5q-.78,11.4-8.08,12.62a11.45,11.45,0,0,1-7.55-1.47,12.11,12.11,0,0,1-5.44-6.28,26,26,0,0,1-2.42-12q.42-8.38,1-16.65T815.85,705q1-10.5,2.38-20.85a63.14,63.14,0,0,0-.83-20.85,57,57,0,0,0-2.06-7.79c-.84-2.4-1.63-4.89-2.36-7.49h-1.74l-1.83,4.5a428.37,428.37,0,0,0-8.4,42q-3.12,21-4.63,42.61-.4,6.3-1.77,8.71t-5.51,3a14.53,14.53,0,0,1-9.43-1.32,11,11,0,0,1-5.79-7,52.22,52.22,0,0,1-1-7.95q-.24-4-.16-8.24a23.71,23.71,0,0,1,.24-5.85,38.67,38.67,0,0,0,.53-5.85l0-1.8a182.64,182.64,0,0,0-2.33-18.14q-1.86-10.94-4-21.43-2.43-12-5.43-24.88a15.76,15.76,0,0,1-.17,2,15.73,15.73,0,0,0-.19,2.25q-.4,7.2-1.08,21.6t-1.36,30.3q-.7,15.9-1.37,30.3t-1.08,21.6q-.75,10.5-10.34,8.73a16.45,16.45,0,0,1-7.52-3.57,13.24,13.24,0,0,1-4.26-7.18A66.63,66.63,0,0,1,732.29,735q.39-23.4.91-46.65t.9-46.64q.52-14.4.61-28.35t.6-28.34a56,56,0,0,1,.39-5.86,32.5,32.5,0,0,1,1.26-5.85q1.53-4.5,4.77-5.56t7.29,1.32a19.45,19.45,0,0,1,5.77,5.08q21.29,22.73,26.08,51.8,2.16,10.49,4.06,20.38,1.61,8.4,3.23,16.94t2.7,13.63q1-4.8,2.1-11.55t2.29-13.51q1.13-6.75,2.27-13.05T799.61,628q3.14-13.5,6-26.71t5.68-26.72q2.19-9.3,11.5-8.14a23.18,23.18,0,0,1,11,4.76A17,17,0,0,1,839.43,581Z" class="cls-2"></path><path style="stroke:#856b4f;stroke-opacity:1;stroke-width:1;stroke-miterlimit:4;stroke-dasharray:none" id="path851" transform="translate(-13.65 -14.22)" d="M900.42,715.6q7,.57,11.49,1.15a28.17,28.17,0,0,1,7.55,1.93,16.09,16.09,0,0,1,5.19,3.58,53.49,53.49,0,0,1,4.71,5.83q2,2.4-3.27,4.21a59.94,59.94,0,0,1-13.6,2.6,122.29,122.29,0,0,1-17.2.36q-8.89-.42-13.52-2.2a9,9,0,0,1-5.18-4.33,22.89,22.89,0,0,1-2.36-6.74,34.83,34.83,0,0,1-.62-6.9,33.92,33.92,0,0,0-.21-5.1q-.09-30.88-.46-61.34t-.75-61.33q-.18-7.2-.06-14.55t0-14.85a30.54,30.54,0,0,1,.69-6.15,19.87,19.87,0,0,1,2.13-5.55,11.55,11.55,0,0,1,3.4-3.31c1.08-.61,2.58-.41,4.51.58a24.85,24.85,0,0,0,9.44,2.22,66.3,66.3,0,0,0,9.76.11c2.52,0,5-.06,7.43-.17a61.71,61.71,0,0,1,7.43.12,24.15,24.15,0,0,1,8.13,1.92,12.85,12.85,0,0,1,6,5.53c1.51,2.59,1.87,4.89,1.06,6.89s-2.77,3-5.88,3a11.17,11.17,0,0,1-4.51-.28,34.27,34.27,0,0,0-4.51-.89,15.42,15.42,0,0,0-3-.88,15.8,15.8,0,0,0-3.06-.29q-5.82-.59-8.19,1.83t-2.76,8.4c0,2.21,0,4.4,0,6.6s.17,4.4.33,6.6q.39,11.4.51,22.49t.51,22.2c.15,2.8.56,4.64,1.22,5.54s2.26,1.75,4.77,2.53a10.36,10.36,0,0,0,3.49.59,16.61,16.61,0,0,1,3.2.29,49.46,49.46,0,0,1,7.85,1.17,10.19,10.19,0,0,1,3,1.64,4.91,4.91,0,0,1,1.54,3.45c.73,3.2-.28,5.3-3,6.31a11.62,11.62,0,0,1-4.25,1.36,19.27,19.27,0,0,0-4.54,1.07,14.59,14.59,0,0,1-2.77.31,13.92,13.92,0,0,0-2.78.31,9.18,9.18,0,0,0-5.74,3.77,14,14,0,0,0-2.3,6.75q-.5,12.9-.56,25.65T900.42,715.6Z" class="cls-2"></path><path style="stroke:#856b4f;stroke-opacity:1;stroke-width:1;stroke-miterlimit:4;stroke-dasharray:none" id="path853" transform="translate(-13.65 -14.22)" d="M1014.29,596.72a40.33,40.33,0,0,1-2.73-11.38q-.49-5.7-1-11.7a121.33,121.33,0,0,1,1.4-22.95,82.8,82.8,0,0,1,6.62-21.77,58.37,58.37,0,0,1,10.61-16.08,39.15,39.15,0,0,1,16-10.11q12-3.93,21.72.23t15.34,15.54a50.22,50.22,0,0,1,4.8,18.28,96.3,96.3,0,0,1-.74,18.9,90.41,90.41,0,0,1-26.78,51.68q-5.94,6-11.28,12.34a32.76,32.76,0,0,0-8.56,24.33c.17,1.6.29,3.3.36,5.09a30.07,30.07,0,0,1-.23,5.1,16.69,16.69,0,0,1-5.16,12.32,24.08,24.08,0,0,1-4.27,3,7.25,7.25,0,0,1-5.11.62,7.94,7.94,0,0,1-4.76-3.28,9.39,9.39,0,0,1-1.51-5.39c-.15-3.2-.14-6.4,0-9.6s.44-6.4.88-9.6a44.29,44.29,0,0,1,3.86-12.92q2.86-6,6.46-12,4.18-6.6,8.37-12.92t8.37-12.93q5.07-7.51,9.43-15.48a93.74,93.74,0,0,0,7.12-16.67A71,71,0,0,0,1067,545.1a35.16,35.16,0,0,0-1.22-14.84,46.8,46.8,0,0,0-5-12q-2.27-4.2-5.61-4.63a10.75,10.75,0,0,0-7.17,2,22.1,22.1,0,0,0-6.21,5.72,30.16,30.16,0,0,0-3.91,7.51,168.29,168.29,0,0,0-10.34,44.43c-.25,3.2-.54,6.36-.89,9.45a22.65,22.65,0,0,1-2.91,8.86c-1.2,2.41-2.4,4-3.57,4.66S1017,597.12,1014.29,596.72Zm.67,84.59a30.93,30.93,0,0,1,12.39-.5,43.19,43.19,0,0,1,11.16,3.71c2.5,1.4,3.45,3.09,2.84,5.09a9.26,9.26,0,0,1-3.58,4.81,9,9,0,0,1-5.41.92,26.62,26.62,0,0,1-6.68-1.47,27.41,27.41,0,0,1-6.21-3.13,11.9,11.9,0,0,1-4-4,5.3,5.3,0,0,1-.54-2.39,1.68,1.68,0,0,1-.13-1.2A8.92,8.92,0,0,0,1015,681.31Z" class="cls-2"></path></svg> 