<?xml version="1.0" encoding="UTF-8"?><svg id="Calque_1" xmlns="http://www.w3.org/2000/svg" viewBox="0 0 386.31 388.29"><path d="m102.46,49.53c24.34,8.15,64.1,7.89,87.41-.8,1.3-.48,2.74-.49,4.04-.01,23.46,8.56,63.27,9.08,87.63.82,2.56-.87,5.41.06,6.82,2.26h0c13.53,20.53,25.3,44.4,30.39,72.87,5.95,33.36.32,68.54-9.42,94.44-15.1,40.12-40.63,70.03-77,90.1-12.17,6.73-25.81,12.73-40,16.38-.92.24-4-.85-6-1.51-55-17.62-92.16-53.46-111.41-104.47-9.6-25.4-15.82-60.71-9.78-94.07,4.74-26.22,15-49.12,27.37-68.87,1.06-1.75,2.19-3.45,3.4-5.1,1.46-1.99,4.13-2.85,6.55-2.04Z" fill="#fff" fill-rule="evenodd"/><path d="m203,213.99c14.53-3.01,24.86-9.86,33.07-19.39,10.11-11.73,15.08-27.03,13.77-42.46-1.28-17.01-8.53-28.93-18.08-38.47-11.16-11.16-32.01-19.67-53.4-14.43-10.16,2.4-19.42,7.65-26.7,15.14-9.35,9.33-16.31,21.08-17.59,38.26-1.17,15.19,3.72,30.21,13.6,41.8,8.14,9.55,18.21,16.06,32.41,19.48,1.9.46,3.26,2.15,3.26,4.11v.18c0,2.34-1.9,4.23-4.23,4.23h-25.06c-2.33,0-4.22,1.89-4.22,4.22v7.81c0,2.33,1.89,4.22,4.22,4.22,8.37.02,16.92-.14,25.14.03,2.3.05,4.15,1.93,4.15,4.23v14.22c0,2.33,1.89,4.23,4.22,4.23h7.82c2.33,0,4.23-1.89,4.23-4.23-.01-4.8-.11-9.7-.01-14.39.05-2.29,1.94-4.11,4.23-4.11h24.87c2.33,0,4.22-1.89,4.22-4.23v-7.82c0-2.33-1.88-4.22-4.22-4.22-8.32-.02-16.8.13-24.97-.03-2.3-.05-4.14-1.93-4.14-4.23,0-2.02,1.43-3.74,3.41-4.15Zm-11.03-14.13c-23.87,0-43.22-19.35-43.22-43.22s19.35-43.23,43.22-43.23,43.23,19.35,43.23,43.23-19.35,43.22-43.23,43.22Z" fill="#144696" fill-rule="evenodd"/><path d="m226.85,189.6c-7.66,8.36-18.85,14.26-32.81,15.08-14.93.89-26.57-5.41-34.69-13.01-8.12-7.59-14.62-18.04-15.09-32.81-.73-23.14,11.12-37.84,26.4-45.63,6-3.01,12.55-4.74,19.26-5.09,12.96-.67,25.62,4.12,34.89,13.2,7.66,7.42,14.52,18.94,14.85,32.99.4,16.38-5.15,26.9-12.81,35.27Z" fill="#144696" fill-rule="evenodd"/><circle cx="191.98" cy="156.64" r="35.23" fill="#fff"/><rect x="146.53" y="220.19" width="89.83" height="21.94" rx="10.97" ry="10.97" fill="#144696"/><path d="m202.41,205.79v48.31c0,6.03-4.93,10.97-10.97,10.97-3.02,0-5.76-1.23-7.75-3.22-1.99-1.99-3.22-4.73-3.22-7.75v-48.31h21.94Z" fill="#144696" fill-rule="evenodd"/></svg>