<?xml version="1.0" encoding="utf-8"?>
<!-- Generator: $$$/GeneralStr/196=Adobe Illustrator 27.6.0, SVG Export Plug-In . SVG Version: 6.00 Build 0)  -->
<svg version="1.1" id="Calque_1" xmlns="http://www.w3.org/2000/svg" xmlns:xlink="http://www.w3.org/1999/xlink" x="0px" y="0px"
	 viewBox="0 0 534 344" style="enable-background:new 0 0 534 344;" xml:space="preserve">
<style type="text/css">
	.st0{fill:#1D1D1B;}
	.st1{fill:#912184;}
</style>
<g>
	<path class="st0" d="M398.48,226.05c-3.3,0-5.5,1.83-5.9,5.39h11.4C403.8,228,402,226.05,398.48,226.05 M398.63,241.66
		c-5.32,0-8.65-3.33-8.65-8.87c0-5.64,3.55-8.98,8.57-8.98c5.02,0,7.8,3.19,7.8,7.92c0,0.4,0,1.1-0.07,1.8h-13.74
		c0.26,3.74,2.46,5.86,6.09,5.86c3.37,0,4.73-1.76,5.35-3.96l2.27,0.66C405.37,239.54,402.84,241.66,398.63,241.66"/>
	<path class="st0" d="M385.54,230.89c-0.66-2.97-2.34-4.73-5.68-4.73c-3.55,0-6.05,2.23-6.05,6.6c0,4.1,2.42,6.56,6.16,6.56
		c3.77,0,4.91-2.16,5.64-4.91l2.42,0.55c-0.84,4.21-3.33,6.7-7.99,6.7c-5.35,0-8.79-3.33-8.79-8.94c0-5.61,3.7-8.91,8.65-8.91
		c4.8,0,7.29,2.46,8.06,6.6L385.54,230.89z"/>
	<path class="st0" d="M356.1,231.11v10.15h-2.53v-17.04h2.53v4.58h0.04c0.73-3.33,3-4.99,6.08-4.99c4.69,0,6.19,3.08,6.19,6.74v10.7
		h-2.53v-10.15c0-2.53-1.06-4.98-4.54-4.98C358.08,226.13,356.1,227.96,356.1,231.11"/>
	<path class="st0" d="M341.41,239.47c3.55,0,5.72-1.91,5.72-4.47v-1.1h-5.64c-2.38,0-3.7,0.95-3.7,2.75
		C337.78,238.04,338.74,239.47,341.41,239.47 M347.13,241.26v-4.4h-0.04c-0.8,3.22-3.22,4.76-6.23,4.76c-3.44,0-5.57-1.58-5.57-4.76
		c0-2.82,1.94-5.02,5.94-5.02h5.9v-1.14c0-3-1.1-4.65-4.18-4.65c-2.71,0-4.18,1.28-4.69,4.43l-2.42-0.4c0.59-4.11,3-6.23,7.18-6.23
		c4.58,0,6.6,2.42,6.6,6.78v10.63H347.13z"/>
	<path class="st0" d="M327.37,241.26h-2.53v-17.04h2.53v4.95h0.07c0.62-3.48,2.35-4.95,5.17-4.95h1.17v2.75h-1.39
		c-3.41,0-5.02,1.39-5.02,4.94V241.26z"/>
</g>
<polygon class="st0" points="319.94,231.55 309.71,231.55 309.71,241.26 307.07,241.26 307.07,219.27 321.22,219.27 321.22,221.8 
	309.71,221.8 309.71,229.02 319.94,229.02 "/>
<rect x="431.02" y="173.11" class="st0" width="6.45" height="28.88"/>
<g>
	<path class="st0" d="M416.66,197.28c2.73,0,4.52-1.6,4.52-3.86v-0.66h-4.81c-1.88,0-3.02,0.85-3.02,2.07
		C413.36,196.2,414.21,197.28,416.66,197.28 M421.19,202v-5.46h-0.09c-0.99,3.81-3.44,5.93-7.21,5.93c-3.86,0-6.78-2.12-6.78-6.5
		c0-4.05,2.4-6.83,8.29-6.83h5.8v-0.94c0-2.4-1.04-3.72-3.49-3.72c-2.12,0-3.48,0.94-3.91,3.53l-6.03-0.85
		c0.56-4.66,3.3-8.01,10.22-8.01c6.79,0,9.61,3.3,9.61,9V202H421.19z"/>
	<path class="st0" d="M392.77,194.98v-9.94h-2.59v-5.37h2.59v-5.61h6.41v5.61h5.89v5.37h-5.89v8.72c0,1.79,0.66,2.64,2.59,2.64
		c0.99,0,2.12-0.33,2.92-0.52l0.7,5.94c-1.69,0.52-2.83,0.85-5.28,0.85C394.94,202.66,392.77,199.22,392.77,194.98"/>
	<path class="st0" d="M373.81,188.9V202h-6.45v-22.33h6.45v6.27h0.05c1.03-5.13,3.72-6.88,7.3-6.88c4.85,0,6.88,3.2,6.88,8.01V202
		h-6.41v-13.1c0-2.31-1.04-4.05-3.72-4.05C375.32,184.85,373.81,186.36,373.81,188.9"/>
	<path class="st0" d="M354.28,184.37c-2.83,0-4.48,1.32-4.9,4.48h9.43C358.62,185.88,357.16,184.37,354.28,184.37 M354.38,202.61
		c-6.74,0-11.45-3.86-11.45-11.31c0-7.73,4.29-12.25,11.54-12.25c6.88,0,10.23,4.38,10.23,10.46c0,0.99,0,1.74-0.1,2.97h-15.26
		c0.42,3.21,2.12,4.62,5.13,4.62c2.97,0,3.96-1.46,4.48-3.2l5.56,1.56C363.42,199.5,360.5,202.61,354.38,202.61"/>
	<path class="st0" d="M313.22,190.17V202h-6.45v-28.27h10.79l3.77,11.22c0.66,1.89,1.7,5.65,2.54,9.23h0.1
		c0.89-3.58,1.93-7.35,2.64-9.47l3.72-10.98h9.85V202h-6.78v-11.83c0-3.44,0.14-7.54,0.23-10.93h-0.05c-1.04,3.82-2.31,8.48-3.82,13
		l-3.39,9.76h-6.12l-3.3-9.99c-1.51-4.81-2.69-9.05-3.72-12.77h-0.05C313.22,182.68,313.22,186.68,313.22,190.17"/>
	<path class="st0" d="M462.6,142.49c-2.83,0-4.48,1.32-4.9,4.48h9.43C466.93,144,465.47,142.49,462.6,142.49 M462.69,160.73
		c-6.74,0-11.45-3.86-11.45-11.31c0-7.73,4.29-12.25,11.54-12.25c6.88,0,10.23,4.38,10.23,10.46c0,0.99,0,1.75-0.1,2.97h-15.26
		c0.42,3.2,2.12,4.62,5.13,4.62c2.97,0,3.96-1.46,4.48-3.2l5.56,1.56C471.74,157.62,468.81,160.73,462.69,160.73 M458.69,136.32
		l-1.22-3.2l11.12-4.29l1.41,3.67L458.69,136.32z"/>
	<path class="st0" d="M437.33,153.09v-9.94h-2.59v-5.37h2.59v-5.61h6.41v5.61h5.89v5.37h-5.89v8.72c0,1.79,0.66,2.64,2.59,2.64
		c0.99,0,2.12-0.33,2.92-0.52l0.7,5.94c-1.69,0.52-2.83,0.85-5.28,0.85C439.5,160.78,437.33,157.33,437.33,153.09"/>
	<path class="st0" d="M418.38,147.01v13.1h-6.45v-22.33h6.45v6.27h0.05c1.04-5.13,3.72-6.88,7.3-6.88c4.85,0,6.88,3.2,6.88,8.01
		v14.94h-6.41v-13.1c0-2.31-1.04-4.05-3.72-4.05C419.88,142.96,418.38,144.47,418.38,147.01"/>
	<path class="st0" d="M397.57,155.4c2.73,0,4.52-1.6,4.52-3.86v-0.66h-4.81c-1.89,0-3.02,0.85-3.02,2.07
		C394.27,154.32,395.11,155.4,397.57,155.4 M402.09,160.11v-5.47h-0.1c-0.99,3.82-3.44,5.94-7.21,5.94c-3.86,0-6.79-2.12-6.79-6.5
		c0-4.05,2.4-6.83,8.29-6.83h5.8v-0.94c0-2.4-1.04-3.72-3.49-3.72c-2.12,0-3.49,0.94-3.91,3.53l-6.03-0.85
		c0.56-4.66,3.3-8.01,10.22-8.01c6.78,0,9.61,3.3,9.61,9v13.85H402.09z"/>
	<path class="st0" d="M374.15,160.77c-9.14-0.05-12.25-4.62-12.91-9.75l6.64-1.32c0.66,3.39,3.2,5.23,6.74,5.23
		c2.83,0,4.43-0.99,4.43-2.78s-1.46-2.73-6.5-3.48c-7.82-1.18-10.32-4.43-10.32-8.91c0-5.32,3.82-8.58,11.21-8.58
		c7.77,0,10.98,4.01,11.97,9.09l-6.69,1.37c-0.8-3.21-2.26-4.76-5.66-4.76c-2.64,0-3.96,1.08-3.96,2.73c0,1.46,0.75,2.59,6.69,3.49
		c8.06,1.27,10.18,4.8,10.18,8.81C385.97,157.28,382.34,160.77,374.15,160.77"/>
	<path class="st0" d="M336.66,147.02v13.1h-6.45v-22.33h6.45v6.27h0.05c1.03-5.14,3.72-6.88,7.3-6.88c4.85,0,6.88,3.2,6.88,8.01
		v14.94h-6.41v-13.1c0-2.31-1.04-4.05-3.72-4.05C338.17,142.96,336.66,144.47,336.66,147.02"/>
	<path class="st0" d="M317.13,142.49c-2.83,0-4.48,1.32-4.9,4.48h9.43C321.46,144,320,142.49,317.13,142.49 M317.22,160.73
		c-6.74,0-11.45-3.86-11.45-11.31c0-7.73,4.29-12.25,11.54-12.25c6.88,0,10.22,4.38,10.22,10.46c0,0.99,0,1.74-0.09,2.97h-15.27
		c0.42,3.2,2.12,4.62,5.13,4.62c2.97,0,3.96-1.46,4.48-3.2l5.56,1.55C326.27,157.62,323.35,160.73,317.22,160.73"/>
	<path class="st0" d="M455.19,118.89c-7.54,0-9.85-3.44-10.51-7.54l5.98-1.18c0.61,2.5,1.93,3.96,4.66,3.96
		c2.07,0,3.11-0.75,3.16-2.12c0-1.22-0.85-1.93-4.85-2.73c-6.27-1.32-8.39-3.44-8.39-7.11c0-4.24,3.06-6.88,9.33-6.88
		c6.4,0,9.04,2.64,9.89,6.79l-6.12,1.37c-0.52-2.4-1.61-3.53-3.82-3.53c-1.89,0-2.92,0.75-2.92,1.98c0,1.22,0.57,2.07,4.95,2.87
		c6.41,1.27,8.25,3.67,8.25,7.02C464.8,116.16,461.88,118.89,455.19,118.89"/>
	<path class="st0" d="M436.27,118.23h-6.45V95.9h6.45v7.96h0.09c1.09-6.79,2.92-7.96,6.03-7.96h1.09v7.35h-2.45
		c-3.63,0-4.76,0.99-4.76,4.34V118.23z"/>
	<path class="st0" d="M419.87,118.23v-6.22h-0.09c-1.04,5.09-3.68,6.88-7.26,6.88c-4.85,0-6.93-3.2-6.93-8.06V95.9h6.45V109
		c0,2.31,1.04,4.1,3.72,4.1c2.59,0,4.1-1.51,4.1-4.1V95.9h6.41v22.33H419.87z"/>
	<path class="st0" d="M391.56,118.89c-7.21,0-11.59-4.48-11.59-11.83c0-7.44,4.53-11.78,11.59-11.78c7.02,0,11.54,4.33,11.54,11.78
		C403.1,114.41,398.72,118.89,391.56,118.89 M391.56,101.13c-3.3,0-5.13,2.31-5.13,5.89c0,3.63,1.79,5.98,5.09,5.98
		c3.35,0,5.18-2.36,5.18-5.98C396.69,103.44,394.81,101.13,391.56,101.13"/>
	<path class="st0" d="M371.91,105.6c-0.52-2.59-1.79-4.48-4.66-4.48c-2.88,0-4.95,1.79-4.95,5.89c0,4.01,1.98,5.98,4.99,5.98
		c2.97,0,4.1-2.02,4.67-4.85l6.17,1.18c-0.75,5.84-4.01,9.57-10.7,9.57c-7.07,0-11.73-3.96-11.73-11.69
		c0-7.54,4.57-11.92,11.59-11.92c7.02,0,9.94,3.44,10.84,9.42L371.91,105.6z"/>
	<path class="st0" d="M343.47,100.61c-2.83,0-4.48,1.32-4.9,4.48H348C347.81,102.12,346.35,100.61,343.47,100.61 M343.56,118.84
		c-6.74,0-11.45-3.86-11.45-11.31c0-7.73,4.29-12.25,11.54-12.25c6.88,0,10.22,4.38,10.22,10.46c0,0.99,0,1.74-0.09,2.97h-15.27
		c0.42,3.2,2.12,4.62,5.13,4.62c2.97,0,3.96-1.46,4.48-3.2l5.56,1.55C352.61,115.73,349.69,118.84,343.56,118.84"/>
	<path class="st0" d="M318.45,118.89c-9.14-0.05-12.25-4.62-12.91-9.75l6.64-1.32c0.66,3.39,3.2,5.23,6.74,5.23
		c2.83,0,4.43-0.99,4.43-2.78c0-1.79-1.46-2.73-6.5-3.48c-7.82-1.18-10.32-4.43-10.32-8.91c0-5.33,3.82-8.58,11.21-8.58
		c7.77,0,10.98,4.01,11.97,9.09l-6.69,1.37c-0.8-3.21-2.26-4.76-5.65-4.76c-2.64,0-3.96,1.08-3.96,2.73c0,1.46,0.75,2.59,6.69,3.49
		c8.06,1.27,10.18,4.8,10.18,8.81C330.28,115.4,326.65,118.89,318.45,118.89"/>
	<path class="st0" d="M468.69,77.01c-7.54,0-9.85-3.44-10.51-7.54l5.98-1.18c0.61,2.5,1.93,3.96,4.66,3.96
		c2.07,0,3.11-0.75,3.16-2.12c0-1.22-0.85-1.93-4.85-2.73c-6.27-1.32-8.39-3.44-8.39-7.11c0-4.24,3.06-6.88,9.33-6.88
		c6.41,0,9.04,2.64,9.89,6.79l-6.12,1.37c-0.52-2.4-1.61-3.53-3.82-3.53c-1.88,0-2.92,0.75-2.92,1.98c0,1.22,0.57,2.07,4.95,2.88
		c6.41,1.27,8.25,3.67,8.25,7.02C478.3,74.28,475.38,77.01,468.69,77.01"/>
	<path class="st0" d="M449.78,76.35h-6.45V54.01h6.45v7.96h0.09c1.09-6.79,2.92-7.96,6.03-7.96h1.09v7.35h-2.45
		c-3.63,0-4.76,0.99-4.76,4.34V76.35z"/>
	<path class="st0" d="M430.25,58.73c-2.83,0-4.48,1.32-4.9,4.48h9.43C434.58,60.23,433.12,58.73,430.25,58.73 M430.34,76.96
		c-6.74,0-11.45-3.86-11.45-11.31c0-7.73,4.29-12.25,11.54-12.25c6.88,0,10.22,4.38,10.22,10.46c0,0.99,0,1.74-0.09,2.97H425.3
		c0.42,3.21,2.12,4.62,5.13,4.62c2.97,0,3.96-1.46,4.48-3.2l5.56,1.55C439.39,73.85,436.47,76.96,430.34,76.96"/>
</g>
<path class="st0" d="M416.2,51.66h-6.69v-4.19h6.69V51.66z M416.1,76.35h-6.45V54.01h6.45V76.35z"/>
<path class="st0" d="M377.61,63.25v13.1h-6.45V54.01h6.45v6.27h0.05c1.04-5.14,3.72-6.88,7.3-6.88c4.52,0,6.6,2.78,6.83,7.02h0.09
	c0.99-5.23,3.49-7.02,7.3-7.02c4.85,0,6.93,3.2,6.93,8.01v14.94h-6.41v-13.1c0-2.31-1.08-4.05-3.77-4.05c-2.59,0-4.1,1.51-4.1,4.05
	v13.1h-6.41v-13.1c0-2.31-1.04-4.05-3.72-4.05C379.12,59.2,377.61,60.7,377.61,63.25"/>
<path class="st0" d="M358.08,58.73c-2.83,0-4.48,1.32-4.9,4.48h9.43C362.41,60.23,360.95,58.73,358.08,58.73 M358.17,76.96
	c-6.74,0-11.45-3.86-11.45-11.31c0-7.73,4.29-12.25,11.54-12.25c6.88,0,10.22,4.38,10.22,10.46c0,0.99,0,1.74-0.09,2.97h-15.27
	c0.42,3.21,2.12,4.62,5.13,4.62c2.97,0,3.96-1.46,4.48-3.2l5.56,1.55C367.22,73.85,364.3,76.96,358.17,76.96"/>
<path class="st0" d="M338.08,76.35h-6.45V54.01h6.45v7.96h0.09c1.09-6.79,2.92-7.96,6.03-7.96h1.09v7.35h-2.45
	c-3.63,0-4.76,0.99-4.76,4.34V76.35z"/>
<path class="st0" d="M317.46,54.11h-3.91v7.68h4.01c2.92,0,4.43-1.22,4.43-3.86C321.98,55.33,320.57,54.11,317.46,54.11
	 M318.31,67.82h-4.76v8.53h-6.79V48.08h11.31c7.35,0,10.98,3.34,10.98,9.85C329.05,63.44,325.19,67.82,318.31,67.82"/>
<path class="st0" d="M451.71,184.37c-2.83,0-4.48,1.32-4.9,4.48h9.43C456.05,185.88,454.59,184.37,451.71,184.37 M451.81,202.61
	c-6.74,0-11.45-3.86-11.45-11.31c0-7.73,4.29-12.25,11.54-12.25c6.88,0,10.22,4.38,10.22,10.46c0,0.99,0,1.74-0.09,2.97h-15.27
	c0.42,3.21,2.12,4.62,5.13,4.62c2.97,0,3.96-1.46,4.48-3.2l5.56,1.56C460.85,199.5,457.93,202.61,451.81,202.61"/>
<path class="st1" d="M281.01,97.99c0-17.8-6.06-32.37-16.1-42.52C254.89,45.35,241.25,40,226.76,40c-21.13,0-34.14,7.42-43.23,14.86
	c-2.21,1.81-4.16,3.6-5.88,5.2c-0.37,0.35-0.72,0.68-1.06,0.99c-1.29,1.21-2.39,2.23-3.44,3.15c-2.88,2.48-3.91,2.66-4.19,2.66
	c-0.28,0-1.31-0.17-4.1-2.63c-1.14-1.01-2.34-2.16-3.77-3.55c-0.18-0.18-0.37-0.36-0.57-0.55c-1.64-1.58-3.5-3.37-5.59-5.17
	C146.36,47.56,134.15,40,114.55,40c-15.61,0-28.91,6.41-38.23,17.24C67.07,68,62.01,82.79,62.01,99.35
	c0,36.67,23.27,68.34,56.9,80.85c-0.07,1.92-0.11,3.87-0.11,5.85c0,14.66,3.93,28.29,10.94,38.43
	c7.03,10.19,17.46,17.17,30.05,17.17c26.31,0,56.63-19.21,79.92-45.71C263.18,169.24,281.01,133.48,281.01,97.99 M268.4,97.99
	c0,31.49-16,64.42-38.17,89.64c-22.35,25.44-49.5,41.42-70.45,41.42c-7.47,0-14.38-4.07-19.67-11.73c-5.32-7.7-8.7-18.73-8.7-31.27
	c0-0.74,0.01-1.48,0.02-2.21c6.26,1.34,12.79,2.05,19.52,2.05c23.1,0,41.15-4.35,53.62-12.56c12.76-8.39,19.33-20.62,19.33-34.89
	c0-21.04-18.07-35.55-40.99-35.55c-18.71,0-35.01,7.73-46.48,22.35c-8.41,10.7-14.02,24.84-16.38,41.84
	c-27.13-11.52-45.42-37.8-45.42-67.74c0-14.04,4.29-25.77,11.27-33.88c6.92-8.04,16.74-12.85,28.67-12.85
	c15.76,0,25.15,5.87,32.13,11.9c1.8,1.56,3.45,3.13,5.07,4.69c0.19,0.18,0.37,0.36,0.56,0.54c1.39,1.35,2.83,2.74,4.22,3.96
	c2.94,2.59,7.09,5.77,12.42,5.77c5.32,0,9.48-3.18,12.43-5.73c1.27-1.1,2.61-2.35,3.92-3.58c0.32-0.3,0.63-0.59,0.95-0.89
	c1.66-1.55,3.38-3.12,5.27-4.66c7.32-5.99,17.6-12,35.24-12c11.35,0,21.69,4.17,29.18,11.73C263.4,71.88,268.4,83.15,268.4,97.99
	 M146.33,133.04c9.02-11.49,21.62-17.52,36.56-17.52c17.89,0,28.38,10.65,28.38,22.94c0,9.87-4.31,18.21-13.65,24.35
	c-9.63,6.33-24.91,10.48-46.69,10.48c-6.48,0-12.74-0.76-18.7-2.18C134.15,154.77,139.24,142.07,146.33,133.04"/>
<rect x="331.63" y="295.94" class="st1" width="132.21" height="9.06"/>
<g>
	<path class="st0" d="M305.61,304.97h2.59v-0.06l-5.79-7.71c3.03-0.41,4.68-2.18,4.68-4.91c0-2.94-1.76-4.97-5.85-4.97h-7.12v17.65
		h2.11v-7.68h3.86L305.61,304.97z M301.08,289.23c2.91,0,3.89,1.21,3.89,3.09c0,1.94-1.5,3.06-3.94,3.06h-4.8v-6.15H301.08z
		 M278.72,304.97h11.85v-2.03h-9.74v-5.97h8.71v-2h-8.71v-5.62h9.71v-2.03h-11.82V304.97z M260.07,304.97h6.76
		c5.62,0,8.82-3.65,8.82-8.91c0-5.27-3.06-8.74-8.97-8.74h-6.62V304.97z M266.42,289.17c4.82,0,7.12,2.56,7.12,6.89
		c0,4.35-2.09,7.06-6.91,7.06h-4.44v-13.95H266.42z M256.13,287.32h-2.11v17.65h2.11V287.32z M240.86,295.79
		c0.82-2.06,1.77-4.47,2.47-6.39h0.15c0.67,1.88,1.65,4.33,2.47,6.39l0.79,1.94h-6.68L240.86,295.79z M249.65,304.97h2.29
		l-7.38-17.65h-2.29l-7.38,17.65h2.26l2.21-5.44h8.09L249.65,304.97z M218.03,295.79c0.82-2.06,1.76-4.47,2.47-6.39h0.15
		c0.68,1.88,1.65,4.33,2.47,6.39l0.79,1.94h-6.68L218.03,295.79z M223.06,286.02l0.35-1.32l-7.2-1.91l-0.38,1.5L223.06,286.02z
		 M226.82,304.97h2.3l-7.38-17.65h-2.29l-7.38,17.65h2.26l2.21-5.44h8.09L226.82,304.97z M192.97,304.97h11.85v-2.03h-9.74v-5.97
		h8.71v-2h-8.71v-5.62h9.71v-2.03h-11.82V304.97z M186.91,304.97h2.59v-0.06l-5.79-7.71c3.03-0.41,4.68-2.18,4.68-4.91
		c0-2.94-1.76-4.97-5.85-4.97h-7.12v17.65h2.11v-7.68h3.86L186.91,304.97z M182.37,289.23c2.91,0,3.89,1.21,3.89,3.09
		c0,1.94-1.5,3.06-3.94,3.06h-4.8v-6.15H182.37z M156.75,304.97h6.76c5.62,0,8.82-3.65,8.82-8.91c0-5.27-3.06-8.74-8.97-8.74h-6.62
		V304.97z M163.11,289.17c4.82,0,7.12,2.56,7.12,6.89c0,4.35-2.09,7.06-6.91,7.06h-4.44v-13.95H163.11z M150.28,304.97h2.53v-17.65
		h-2.09v9.03c0,1.82,0.03,3.97,0.06,5.8h-0.06c-1.06-1.8-2.5-4.18-4-6.53l-5.41-8.3h-2.94v17.65h2.06v-9.03
		c0-1.94-0.03-4.47-0.06-6.42h0.06c1,1.8,2.38,4.12,3.62,6L150.28,304.97z M122.98,304.97h11.85v-2.03h-9.74v-5.97h8.71v-2h-8.71
		v-5.62h9.71v-2.03h-11.82V304.97z M116.92,304.97h2.59v-0.06l-5.79-7.71c3.03-0.41,4.68-2.18,4.68-4.91c0-2.94-1.76-4.97-5.85-4.97
		h-7.12v17.65h2.11v-7.68h3.86L116.92,304.97z M112.39,289.23c2.91,0,3.89,1.21,3.89,3.09c0,1.94-1.5,3.06-3.94,3.06h-4.8v-6.15
		H112.39z M96.76,297.79c3.62,0,5.73-2.14,5.73-5.26c0-3.5-2.09-5.21-5.79-5.21h-6.59v17.65h2.11v-7.18H96.76z M96.5,289.23
		c2.71,0,3.83,1,3.83,3.33c0,2.3-1.3,3.33-3.8,3.33h-4.3v-6.65H96.5z M81.47,297.79c3.62,0,5.73-2.14,5.73-5.26
		c0-3.5-2.09-5.21-5.79-5.21h-6.59v17.65h2.11v-7.18H81.47z M81.2,289.23c2.71,0,3.83,1,3.83,3.33c0,2.3-1.3,3.33-3.8,3.33h-4.3
		v-6.65H81.2z M61.67,295.79c0.82-2.06,1.76-4.47,2.47-6.39h0.15c0.68,1.88,1.65,4.33,2.47,6.39l0.79,1.94h-6.68L61.67,295.79z
		 M70.46,304.97h2.29l-7.38-17.65h-2.29l-7.38,17.65h2.27l2.21-5.44h8.09L70.46,304.97z"/>
</g>
</svg>
